# xmcd
#
# Track frame offsets:
#	150
#	12570
#	25300
#	47378
#	58906
#	74995
#	88100
#	96226
#	106762
#	117166
#	131707
#	144443
#	160346
#	174072
#
# Disc length: 2478 seconds
#
# Revision: 1
# Processed by: cddbd v1.5.2PL0 Copyright (c) Steve Scherf et al.
# Submitted via: audiograbber 1.83.01
#
DISCID=c109ac0e
DTITLE=Johnny Cash, June Carter - Johnny Cash, the man in black, ein musikalisc
DTITLE=hes Portrait
DYEAR=1900
DGENRE=ountry
TTITLE0=Jackson, Johnny Cash, June Carter
TTITLE1=Folsom Brison Blues, , Johnny Cash, John R. Cash
TTITLE2=Down there the train, Mama Cash
TTITLE3=Life is like a mountain highway (trad., der Prediger und seine Gemeinde
TTITLE3=)
TTITLE4=Hevenly Radio, trad. Papa Cash
TTITLE5=If i were a carpenter, Johnny Cash, June Carter
TTITLE6=Wer kennt den Weg? Joh R Cash. Peter Anton, Johnny Cash
TTITLE7=Waiting for a train, Jimmie Rodgers (Bremser
TTITLE8=Long legged guitar pickin' man, Johnny Cash, June Carter
TTITLE9=Uncloudy day, Johnny Cash, trad. Vivien Cash
TTITLE10=Ring of fire, Johnny Cash, June Carter
TTITLE11=Once before i die, June Carter
TTITLE12=I still miss someone, Johnny Cash
TTITLE13=Gospel Boogie (a wonderfull time up there), Ensemble
EXTD=Buch: James Edward Lyons\nmusikalische Arragements: Roland Heinrich\nGema
EXTD=\nwww.landgraf.de
EXTT0=
EXTT1=
EXTT2=
EXTT3=
EXTT4=
EXTT5=
EXTT6=
EXTT7=
EXTT8=
EXTT9=
EXTT10=
EXTT11=
EXTT12=
EXTT13=
PLAYORDER=
